<?xml version="1.0" encoding="utf-8"?>
<!-- Generator: Adobe Illustrator 23.0.3, SVG Export Plug-In . SVG Version: 6.00 Build 0)  -->
<svg version="1.1" id="Layer_1" xmlns="http://www.w3.org/2000/svg" xmlns:xlink="http://www.w3.org/1999/xlink" x="0px" y="0px"
	 viewBox="0 0 512 512" style="enable-background:new 0 0 512 512;" xml:space="preserve">
<style type="text/css">
	.st0{fill:#FAFAFA;}
	.st1{fill:#607D8B;}
</style>
<g>
	<path class="st0" d="M341.3,362.7H170.7c-11.8,0-21.3-9.6-21.3-21.3c0-11.8,9.6-21.3,21.3-21.3h170.7c11.8,0,21.3,9.6,21.3,21.3
		C362.7,353.1,353.1,362.7,341.3,362.7z"/>
	<path class="st0" d="M341.3,277.3H170.7c-11.8,0-21.3-9.6-21.3-21.3s9.6-21.3,21.3-21.3h170.7c11.8,0,21.3,9.6,21.3,21.3
		S353.1,277.3,341.3,277.3z"/>
	<path class="st0" d="M341.3,192H170.7c-11.8,0-21.3-9.6-21.3-21.3c0-11.8,9.6-21.3,21.3-21.3h170.7c11.8,0,21.3,9.6,21.3,21.3
		C362.7,182.4,353.1,192,341.3,192z"/>
</g>
<path class="st1" d="M370.8,21c-46.2,0-88.7,22.3-114.8,58.7C229.9,43.3,187.4,21,141.2,21C63.4,21,0,84.2,0,161.9
	c0,138.3,211.1,303.1,230.1,317.7c6.8,6.8,16.1,10.7,25.9,10.7s19.2-3.9,25.9-10.7c19-14.6,230.1-179.4,230.1-317.7
	C512,84.2,448.6,21,370.8,21z"/>
</svg>
