<?xml version="1.0" encoding="UTF-8" standalone="no"?> <svg width="64" height="64" viewBox="0 0 64 64" fill="none" xmlns="http://www.w3.org/2000/svg">
<path d="M18.43 19.13L17 27.56C16.9643 27.7475 16.983 27.9413 17.0539 28.1185C17.1247 28.2957 17.2449 28.4489 17.4 28.56C17.5512 28.6681 17.7296 28.7319 17.915 28.7443C18.1005 28.7567 18.2858 28.7171 18.45 28.63L26.02 24.63L33.59 28.63C33.7315 28.7064 33.8892 28.7476 34.05 28.75C34.2618 28.7508 34.4684 28.6842 34.64 28.56C34.7951 28.4489 34.9152 28.2957 34.9861 28.1185C35.057 27.9413 35.0757 27.7475 35.04 27.56L33.59 19.13L39.72 13.13C39.8521 12.9992 39.945 12.8341 39.9885 12.6533C40.0319 12.4726 40.0242 12.2833 39.966 12.1067C39.9078 11.9302 39.8016 11.7733 39.6592 11.6538C39.5168 11.5342 39.344 11.4567 39.16 11.43L34.16 10.7C33.8974 10.6629 33.6309 10.7316 33.419 10.891C33.2071 11.0504 33.0672 11.2875 33.03 11.55C32.9929 11.8126 33.0616 12.0791 33.221 12.291C33.3804 12.5029 33.6175 12.6428 33.88 12.68L36.88 13.11L31.8 18.07C31.6843 18.1824 31.5974 18.3212 31.5469 18.4744C31.4964 18.6276 31.4838 18.7908 31.51 18.95L32.71 25.95L26.46 22.67C26.3195 22.5912 26.1611 22.5498 26 22.5498C25.8389 22.5498 25.6805 22.5912 25.54 22.67L19.29 25.9L20.49 19C20.5162 18.8408 20.5036 18.6776 20.4531 18.5244C20.4026 18.3712 20.3157 18.2324 20.2 18.12L15.2 13.19L22.2 12.19C22.3602 12.1659 22.5122 12.1033 22.6428 12.0075C22.7735 11.9117 22.8789 11.7856 22.95 11.64L26 5.26001L29.12 11.58C29.1776 11.6984 29.258 11.8042 29.3566 11.8914C29.4552 11.9786 29.57 12.0455 29.6945 12.0882C29.819 12.131 29.9507 12.1487 30.0821 12.1404C30.2134 12.1322 30.3419 12.098 30.46 12.04C30.6973 11.9219 30.878 11.7144 30.9623 11.4631C31.0467 11.2119 31.0279 10.9374 30.91 10.7L26.91 2.56001C26.8281 2.39093 26.7003 2.24835 26.5411 2.14858C26.3819 2.04881 26.1979 1.9959 26.01 1.9959C25.8221 1.9959 25.6381 2.04881 25.4789 2.14858C25.3197 2.24835 25.1919 2.39093 25.11 2.56001L21.33 10.23L12.87 11.46C12.686 11.4867 12.5131 11.5642 12.3708 11.6838C12.2284 11.8033 12.1222 11.9602 12.064 12.1367C12.0058 12.3133 11.998 12.5026 12.0415 12.6833C12.085 12.8641 12.1779 13.0292 12.31 13.16L18.43 19.13Z" fill="black"/>
<path d="M38.86 19.82C38.674 19.8453 38.4989 19.9225 38.3546 20.0427C38.2104 20.1629 38.103 20.3212 38.0445 20.4996C37.9861 20.6781 37.9791 20.8693 38.0243 21.0515C38.0694 21.2337 38.165 21.3996 38.3 21.53L41.93 25.06L41.07 30.06C41.0343 30.2475 41.053 30.4413 41.1239 30.6185C41.1948 30.7957 41.3149 30.9489 41.47 31.06C41.6212 31.1681 41.7996 31.2319 41.9851 31.2443C42.1705 31.2567 42.3558 31.2171 42.52 31.13L47 28.75L51.48 31.1C51.6215 31.1764 51.7793 31.2176 51.94 31.22C52.1518 31.2208 52.3584 31.1542 52.53 31.03C52.6851 30.9189 52.8053 30.7657 52.8761 30.5885C52.947 30.4113 52.9657 30.2175 52.93 30.03L52 24.54C51.9777 24.4087 51.9297 24.283 51.8588 24.1703C51.7879 24.0575 51.6955 23.9598 51.5869 23.8827C51.4783 23.8056 51.3555 23.7507 51.2256 23.7211C51.0958 23.6914 50.9613 23.6877 50.83 23.71C50.6987 23.7323 50.573 23.7803 50.4603 23.8512C50.3475 23.9221 50.2498 24.0145 50.1727 24.1231C50.0956 24.2318 50.0407 24.3545 50.0111 24.4844C49.9814 24.6143 49.9777 24.7487 50 24.88L50.61 28.39L47.46 26.73C47.3153 26.653 47.1539 26.6127 46.99 26.6127C46.8261 26.6127 46.6647 26.653 46.52 26.73L43.37 28.39L44 24.88C44.025 24.72 44.0107 24.5563 43.9585 24.403C43.9062 24.2497 43.8175 24.1114 43.7 24L41.15 21.51L44.67 21C44.8302 20.9759 44.9822 20.9133 45.1128 20.8175C45.2435 20.7217 45.3489 20.5956 45.42 20.45L47 17.26L48.58 20.45C48.6511 20.5956 48.7565 20.7217 48.8872 20.8175C49.0178 20.9133 49.1698 20.9759 49.33 21L52.99 21.53C52.9344 21.7019 52.9265 21.8857 52.967 22.0618C53.0075 22.2378 53.0949 22.3996 53.22 22.53C53.313 22.6237 53.4236 22.6981 53.5454 22.7489C53.6673 22.7997 53.798 22.8258 53.93 22.8258C54.062 22.8258 54.1927 22.7997 54.3146 22.7489C54.4364 22.6981 54.547 22.6237 54.64 22.53L55.7 21.53C55.835 21.3996 55.9306 21.2337 55.9757 21.0515C56.0209 20.8693 56.0139 20.6781 55.9555 20.4996C55.897 20.3212 55.7896 20.1629 55.6454 20.0427C55.5012 19.9225 55.326 19.8453 55.14 19.82L50.14 19.09L47.9 14.56C47.8181 14.3909 47.6903 14.2483 47.5311 14.1486C47.3719 14.0488 47.1879 13.9959 47 13.9959C46.8121 13.9959 46.6281 14.0488 46.4689 14.1486C46.3097 14.2483 46.1819 14.3909 46.1 14.56L43.86 19.09L38.86 19.82Z" fill="black"/>
<path d="M4.31 31.24C4.27727 31.4242 4.29689 31.614 4.36661 31.7876C4.43634 31.9612 4.55338 32.1118 4.70443 32.2222C4.85548 32.3326 5.03448 32.3985 5.22108 32.4122C5.40768 32.426 5.59439 32.3871 5.76 32.3L9 30.59L12.24 32.3C12.4747 32.4233 12.7488 32.4483 13.002 32.3695C13.2551 32.2907 13.4666 32.1147 13.59 31.88C13.7133 31.6453 13.7382 31.3712 13.6595 31.1181C13.5807 30.8649 13.4047 30.6534 13.17 30.53L9.47 28.53C9.32532 28.453 9.16392 28.4127 9 28.4127C8.83609 28.4127 8.67468 28.453 8.53 28.53L6.62 29.53L7 27.45C7.02624 27.2908 7.01357 27.1276 6.96307 26.9744C6.91257 26.8212 6.82574 26.6824 6.71 26.57L5.15 25.06L7.29 24.75C7.44303 24.7201 7.58694 24.6547 7.71022 24.5592C7.8335 24.4637 7.93273 24.3407 8 24.2L9 22.26L10 24.2C10.0711 24.3456 10.1765 24.4717 10.3072 24.5675C10.4378 24.6633 10.5898 24.726 10.75 24.75L12.89 25.06L11.3 26.57C11.2061 26.6619 11.1312 26.7715 11.0797 26.8923C11.0281 27.0132 11.0008 27.143 10.9994 27.2744C10.9981 27.4058 11.0226 27.5362 11.0715 27.6581C11.1205 27.78 11.1931 27.8911 11.285 27.985C11.3769 28.0789 11.4864 28.1538 11.6073 28.2054C11.7282 28.2569 11.858 28.2842 11.9894 28.2856C12.1208 28.287 12.2512 28.2625 12.3731 28.2135C12.495 28.1645 12.6061 28.0919 12.7 28L15.7 25.08C15.8285 24.9517 15.9197 24.7909 15.9638 24.6147C16.0078 24.4385 16.0031 24.2537 15.95 24.08C15.892 23.9023 15.7854 23.7444 15.6423 23.6242C15.4991 23.504 15.3251 23.4263 15.14 23.4L11.52 22.87L9.9 19.56C9.81812 19.3909 9.69026 19.2484 9.53109 19.1486C9.37192 19.0488 9.18786 18.9959 9 18.9959C8.81214 18.9959 8.62809 19.0488 8.46891 19.1486C8.30974 19.2484 8.18189 19.3909 8.1 19.56L6.48 22.84L2.86 23.37C2.67492 23.3963 2.50092 23.474 2.35775 23.5942C2.21458 23.7144 2.10796 23.8723 2.05 24.05C1.99695 24.2237 1.99218 24.4085 2.03623 24.5847C2.08027 24.7609 2.17146 24.9217 2.3 25.05L4.93 27.6L4.31 31.24Z" fill="black"/>
<path d="M61.38 60.07L58.84 59.07C53.5099 56.8895 48.7154 53.5803 44.7864 49.3699C40.8574 45.1595 37.8872 40.148 36.08 34.68C35.9951 34.4281 35.8137 34.2201 35.5755 34.102C35.3373 33.9838 35.062 33.9651 34.81 34.05C34.558 34.1349 34.3501 34.3164 34.232 34.5545C34.1138 34.7927 34.0951 35.0681 34.18 35.32C37.447 45.1204 44.2114 53.373 53.18 58.5L49.56 57.81C43.1872 56.5977 37.2058 53.8505 32.1336 49.8064C27.0614 45.7622 23.0511 40.5428 20.45 34.6C20.4023 34.4729 20.3291 34.3569 20.2351 34.259C20.141 34.1611 20.028 34.0834 19.903 34.0305C19.7779 33.9777 19.6434 33.9509 19.5077 33.9518C19.3719 33.9526 19.2377 33.9811 19.1133 34.0355C18.989 34.0899 18.8769 34.169 18.7841 34.2681C18.6913 34.3671 18.6196 34.4841 18.5735 34.6117C18.5273 34.7394 18.5076 34.8751 18.5156 35.0107C18.5236 35.1462 18.5591 35.2787 18.62 35.4C21.3503 41.6395 25.5601 47.1195 30.885 51.3659C36.2099 55.6122 42.4894 58.4968 49.18 59.77L60.81 62H61C61.2231 62.0089 61.4428 61.9428 61.6241 61.8123C61.8053 61.6819 61.9376 61.4945 62 61.28C62.0682 61.0373 62.0422 60.7778 61.9273 60.5534C61.8123 60.3291 61.6168 60.1564 61.38 60.07V60.07Z" fill="black"/>
<path d="M53.46 37.05C53.46 36.7848 53.3546 36.5304 53.1671 36.3429C52.9796 36.1554 52.7252 36.05 52.46 36.05C52.1948 36.05 51.9404 36.1554 51.7529 36.3429C51.5654 36.5304 51.46 36.7848 51.46 37.05C51.2274 41.9098 52.9238 46.6649 56.18 50.28C50.4933 47.3889 46.0458 42.5365 43.66 36.62C43.5601 36.375 43.3673 36.1796 43.1236 36.0765C42.8799 35.9734 42.6054 35.9711 42.36 36.07C42.2375 36.1194 42.126 36.1926 42.0319 36.2853C41.9378 36.3781 41.863 36.4885 41.8119 36.6103C41.7608 36.7321 41.7343 36.8629 41.7339 36.995C41.7336 37.1271 41.7595 37.2579 41.81 37.38C43.47 41.4289 46.0416 45.0402 49.3249 47.9332C52.6081 50.8262 56.5144 52.9228 60.74 54.06H61C61.1847 54.0594 61.3656 54.0078 61.5227 53.9107C61.6798 53.8136 61.8069 53.6749 61.89 53.51C61.9939 53.3062 62.0248 53.0729 61.9775 52.849C61.9301 52.6252 61.8075 52.4243 61.63 52.28L59.51 50.6C57.5093 48.9744 55.9191 46.9008 54.8681 44.5469C53.8171 42.193 53.3347 39.6248 53.46 37.05V37.05Z" fill="black"/>
<path d="M30.18 53.07L28.65 52.45C25.4447 51.1409 22.568 49.1399 20.2257 46.5901C17.8833 44.0404 16.1331 41.0047 15.1 37.7C15.0204 37.4467 14.8435 37.2354 14.6082 37.1126C14.3728 36.9898 14.0983 36.9654 13.845 37.045C13.5917 37.1246 13.3804 37.3015 13.2576 37.5369C13.1347 37.7722 13.1104 38.0467 13.19 38.3C14.8932 43.7535 18.3799 48.4763 23.09 51.71H23.01C19.1771 50.9858 15.5848 49.3185 12.5575 46.8586C9.53021 44.3987 7.16315 41.2237 5.67 37.62C5.56922 37.3747 5.37511 37.1794 5.13037 37.0772C4.88564 36.975 4.61033 36.9742 4.365 37.075C4.24353 37.1249 4.13307 37.1983 4.03994 37.2908C3.94681 37.3834 3.87283 37.4935 3.82223 37.6146C3.72002 37.8594 3.71922 38.1347 3.82 38.38C5.44251 42.2869 8.01116 45.7289 11.2947 48.3963C14.5782 51.0636 18.4736 52.8724 22.63 53.66L29.63 54.98H29.82C30.0431 54.9889 30.2628 54.9228 30.4441 54.7923C30.6253 54.6618 30.7576 54.4744 30.82 54.26C30.8815 54.0175 30.8499 53.7609 30.7314 53.5406C30.6129 53.3203 30.4162 53.1524 30.18 53.07Z" fill="black"/>
<path d="M50 10H51V11C51 11.2652 51.1054 11.5196 51.2929 11.7071C51.4804 11.8946 51.7348 12 52 12C52.2652 12 52.5196 11.8946 52.7071 11.7071C52.8946 11.5196 53 11.2652 53 11V10H54C54.2652 10 54.5196 9.89464 54.7071 9.70711C54.8946 9.51957 55 9.26522 55 9C55 8.73478 54.8946 8.48043 54.7071 8.29289C54.5196 8.10536 54.2652 8 54 8H53V7C53 6.73478 52.8946 6.48043 52.7071 6.29289C52.5196 6.10536 52.2652 6 52 6C51.7348 6 51.4804 6.10536 51.2929 6.29289C51.1054 6.48043 51 6.73478 51 7V8H50C49.7348 8 49.4804 8.10536 49.2929 8.29289C49.1054 8.48043 49 8.73478 49 9C49 9.26522 49.1054 9.51957 49.2929 9.70711C49.4804 9.89464 49.7348 10 50 10Z" fill="black"/>
<path d="M27 36C27.2652 36 27.5196 35.8946 27.7071 35.7071C27.8946 35.5196 28 35.2652 28 35V34H29C29.2652 34 29.5196 33.8946 29.7071 33.7071C29.8946 33.5196 30 33.2652 30 33C30 32.7348 29.8946 32.4804 29.7071 32.2929C29.5196 32.1054 29.2652 32 29 32H28V31C28 30.7348 27.8946 30.4804 27.7071 30.2929C27.5196 30.1054 27.2652 30 27 30C26.7348 30 26.4804 30.1054 26.2929 30.2929C26.1054 30.4804 26 30.7348 26 31V32H25C24.7348 32 24.4804 32.1054 24.2929 32.2929C24.1054 32.4804 24 32.7348 24 33C24 33.2652 24.1054 33.5196 24.2929 33.7071C24.4804 33.8946 24.7348 34 25 34H26V35C26 35.2652 26.1054 35.5196 26.2929 35.7071C26.4804 35.8946 26.7348 36 27 36Z" fill="black"/>
<path d="M31 45C31.2652 45 31.5196 44.8946 31.7071 44.7071C31.8946 44.5196 32 44.2652 32 44V43H33C33.2652 43 33.5196 42.8946 33.7071 42.7071C33.8946 42.5196 34 42.2652 34 42C34 41.7348 33.8946 41.4804 33.7071 41.2929C33.5196 41.1054 33.2652 41 33 41H32V40C32 39.7348 31.8946 39.4804 31.7071 39.2929C31.5196 39.1054 31.2652 39 31 39C30.7348 39 30.4804 39.1054 30.2929 39.2929C30.1054 39.4804 30 39.7348 30 40V41H29C28.7348 41 28.4804 41.1054 28.2929 41.2929C28.1054 41.4804 28 41.7348 28 42C28 42.2652 28.1054 42.5196 28.2929 42.7071C28.4804 42.8946 28.7348 43 29 43H30V44C30 44.2652 30.1054 44.5196 30.2929 44.7071C30.4804 44.8946 30.7348 45 31 45Z" fill="black"/>
<path d="M12 55H11V54C11 53.7348 10.8946 53.4804 10.7071 53.2929C10.5196 53.1054 10.2652 53 10 53C9.73478 53 9.48043 53.1054 9.29289 53.2929C9.10536 53.4804 9 53.7348 9 54V55H8C7.73478 55 7.48043 55.1054 7.29289 55.2929C7.10536 55.4804 7 55.7348 7 56C7 56.2652 7.10536 56.5196 7.29289 56.7071C7.48043 56.8946 7.73478 57 8 57H9V58C9 58.2652 9.10536 58.5196 9.29289 58.7071C9.48043 58.8946 9.73478 59 10 59C10.2652 59 10.5196 58.8946 10.7071 58.7071C10.8946 58.5196 11 58.2652 11 58V57H12C12.2652 57 12.5196 56.8946 12.7071 56.7071C12.8946 56.5196 13 56.2652 13 56C13 55.7348 12.8946 55.4804 12.7071 55.2929C12.5196 55.1054 12.2652 55 12 55Z" fill="black"/>
<path d="M9 39C9.26522 39 9.51957 38.8946 9.70711 38.7071C9.89464 38.5196 10 38.2652 10 38V37H11C11.2652 37 11.5196 36.8946 11.7071 36.7071C11.8946 36.5196 12 36.2652 12 36C12 35.7348 11.8946 35.4804 11.7071 35.2929C11.5196 35.1054 11.2652 35 11 35H10V34C10 33.7348 9.89464 33.4804 9.70711 33.2929C9.51957 33.1054 9.26522 33 9 33C8.73478 33 8.48043 33.1054 8.29289 33.2929C8.10536 33.4804 8 33.7348 8 34V35H7C6.73478 35 6.48043 35.1054 6.29289 35.2929C6.10536 35.4804 6 35.7348 6 36C6 36.2652 6.10536 36.5196 6.29289 36.7071C6.48043 36.8946 6.73478 37 7 37H8V38C8 38.2652 8.10536 38.5196 8.29289 38.7071C8.48043 38.8946 8.73478 39 9 39Z" fill="black"/>
<path d="M48 32C47.7348 32 47.4804 32.1054 47.2929 32.2929C47.1054 32.4804 47 32.7348 47 33V34H46C45.7348 34 45.4804 34.1054 45.2929 34.2929C45.1054 34.4804 45 34.7348 45 35C45 35.2652 45.1054 35.5196 45.2929 35.7071C45.4804 35.8946 45.7348 36 46 36H47V37C47 37.2652 47.1054 37.5196 47.2929 37.7071C47.4804 37.8946 47.7348 38 48 38C48.2652 38 48.5196 37.8946 48.7071 37.7071C48.8946 37.5196 49 37.2652 49 37V36H50C50.2652 36 50.5196 35.8946 50.7071 35.7071C50.8946 35.5196 51 35.2652 51 35C51 34.7348 50.8946 34.4804 50.7071 34.2929C50.5196 34.1054 50.2652 34 50 34H49V33C49 32.7348 48.8946 32.4804 48.7071 32.2929C48.5196 32.1054 48.2652 32 48 32V32Z" fill="black"/>
<path d="M41 6H42V7C42 7.26522 42.1054 7.51957 42.2929 7.70711C42.4804 7.89464 42.7348 8 43 8C43.2652 8 43.5196 7.89464 43.7071 7.70711C43.8946 7.51957 44 7.26522 44 7V6H45C45.2652 6 45.5196 5.89464 45.7071 5.70711C45.8946 5.51957 46 5.26522 46 5C46 4.73478 45.8946 4.48043 45.7071 4.29289C45.5196 4.10536 45.2652 4 45 4H44V3C44 2.73478 43.8946 2.48043 43.7071 2.29289C43.5196 2.10536 43.2652 2 43 2C42.7348 2 42.4804 2.10536 42.2929 2.29289C42.1054 2.48043 42 2.73478 42 3V4H41C40.7348 4 40.4804 4.10536 40.2929 4.29289C40.1054 4.48043 40 4.73478 40 5C40 5.26522 40.1054 5.51957 40.2929 5.70711C40.4804 5.89464 40.7348 6 41 6Z" fill="black"/>
<path d="M61 28H60V27C60 26.7348 59.8946 26.4804 59.7071 26.2929C59.5196 26.1054 59.2652 26 59 26C58.7348 26 58.4804 26.1054 58.2929 26.2929C58.1054 26.4804 58 26.7348 58 27V28H57C56.7348 28 56.4804 28.1054 56.2929 28.2929C56.1054 28.4804 56 28.7348 56 29C56 29.2652 56.1054 29.5196 56.2929 29.7071C56.4804 29.8946 56.7348 30 57 30H58V31C58 31.2652 58.1054 31.5196 58.2929 31.7071C58.4804 31.8946 58.7348 32 59 32C59.2652 32 59.5196 31.8946 59.7071 31.7071C59.8946 31.5196 60 31.2652 60 31V30H61C61.2652 30 61.5196 29.8946 61.7071 29.7071C61.8946 29.5196 62 29.2652 62 29C62 28.7348 61.8946 28.4804 61.7071 28.2929C61.5196 28.1054 61.2652 28 61 28Z" fill="black"/>
<path d="M3 16H4V17C4 17.2652 4.10536 17.5196 4.29289 17.7071C4.48043 17.8946 4.73478 18 5 18C5.26522 18 5.51957 17.8946 5.70711 17.7071C5.89464 17.5196 6 17.2652 6 17V16H7C7.26522 16 7.51957 15.8946 7.70711 15.7071C7.89464 15.5196 8 15.2652 8 15C8 14.7348 7.89464 14.4804 7.70711 14.2929C7.51957 14.1054 7.26522 14 7 14H6V13C6 12.7348 5.89464 12.4804 5.70711 12.2929C5.51957 12.1054 5.26522 12 5 12C4.73478 12 4.48043 12.1054 4.29289 12.2929C4.10536 12.4804 4 12.7348 4 13V14H3C2.73478 14 2.48043 14.1054 2.29289 14.2929C2.10536 14.4804 2 14.7348 2 15C2 15.2652 2.10536 15.5196 2.29289 15.7071C2.48043 15.8946 2.73478 16 3 16V16Z" fill="black"/>
<path d="M18 7C18.5523 7 19 6.55228 19 6C19 5.44772 18.5523 5 18 5C17.4477 5 17 5.44772 17 6C17 6.55228 17.4477 7 18 7Z" fill="black"/>
<path d="M22 32C22.5523 32 23 31.5523 23 31C23 30.4477 22.5523 30 22 30C21.4477 30 21 30.4477 21 31C21 31.5523 21.4477 32 22 32Z" fill="black"/>
<path d="M6 7C6.55228 7 7 6.55228 7 6C7 5.44772 6.55228 5 6 5C5.44772 5 5 5.44772 5 6C5 6.55228 5.44772 7 6 7Z" fill="black"/>
<path d="M58 38C58.5523 38 59 37.5523 59 37C59 36.4477 58.5523 36 58 36C57.4477 36 57 36.4477 57 37C57 37.5523 57.4477 38 58 38Z" fill="black"/>
<path d="M57 16C57.5523 16 58 15.5523 58 15C58 14.4477 57.5523 14 57 14C56.4477 14 56 14.4477 56 15C56 15.5523 56.4477 16 57 16Z" fill="black"/>
<path d="M61 22C61.5523 22 62 21.5523 62 21C62 20.4477 61.5523 20 61 20C60.4477 20 60 20.4477 60 21C60 21.5523 60.4477 22 61 22Z" fill="black"/>
<path d="M33 5C33.5523 5 34 4.55228 34 4C34 3.44772 33.5523 3 33 3C32.4477 3 32 3.44772 32 4C32 4.55228 32.4477 5 33 5Z" fill="black"/>
<path d="M61 4C61.5523 4 62 3.55228 62 3C62 2.44772 61.5523 2 61 2C60.4477 2 60 2.44772 60 3C60 3.55228 60.4477 4 61 4Z" fill="black"/>
<path d="M35 48C35.5523 48 36 47.5523 36 47C36 46.4477 35.5523 46 35 46C34.4477 46 34 46.4477 34 47C34 47.5523 34.4477 48 35 48Z" fill="black"/>
<path d="M40 52C40.5523 52 41 51.5523 41 51C41 50.4477 40.5523 50 40 50C39.4477 50 39 50.4477 39 51C39 51.5523 39.4477 52 40 52Z" fill="black"/>
<path d="M49 42C49.5523 42 50 41.5523 50 41C50 40.4477 49.5523 40 49 40C48.4477 40 48 40.4477 48 41C48 41.5523 48.4477 42 49 42Z" fill="black"/>
<path d="M12 43C12.5523 43 13 42.5523 13 42C13 41.4477 12.5523 41 12 41C11.4477 41 11 41.4477 11 42C11 42.5523 11.4477 43 12 43Z" fill="black"/>
<path d="M20 60C20.5523 60 21 59.5523 21 59C21 58.4477 20.5523 58 20 58C19.4477 58 19 58.4477 19 59C19 59.5523 19.4477 60 20 60Z" fill="black"/>
<path d="M5 49C5.55228 49 6 48.5523 6 48C6 47.4477 5.55228 47 5 47C4.44772 47 4 47.4477 4 48C4 48.5523 4.44772 49 5 49Z" fill="black"/>
<path d="M11 10C11.5523 10 12 9.55228 12 9C12 8.44772 11.5523 8 11 8C10.4477 8 10 8.44772 10 9C10 9.55228 10.4477 10 11 10Z" fill="black"/>
</svg>
