<?xml version="1.0" encoding="UTF-8" standalone="no"?> <svg width="48" height="48" viewBox="0 0 48 48" fill="none" xmlns="http://www.w3.org/2000/svg">
<path d="M23.735 30C23.433 30.005 23.1313 29.9779 22.835 29.919C22.6519 29.877 22.4844 29.7843 22.3516 29.6514C22.2187 29.5186 22.126 29.3511 22.084 29.168C22.054 29.034 21.371 25.868 24.589 22.646L40.243 6.98799C40.8753 6.35545 41.7329 5.99999 42.6273 5.9998C43.5216 5.99961 44.3795 6.35472 45.012 6.98699C45.6445 7.61927 46 8.47693 46.0002 9.37129C46.0004 10.2656 45.6453 11.1235 45.013 11.756L29.356 27.412C28.6402 28.1978 27.7737 28.8319 26.8081 29.2764C25.8426 29.721 24.7975 29.9671 23.735 30ZM42.628 7.99999C42.4478 7.99958 42.2693 8.0347 42.1027 8.10334C41.9361 8.17197 41.7846 8.27278 41.657 8.39999L26 24.058C24.8685 25.0776 24.1559 26.4809 24 27.996C25.5145 27.8392 26.9172 27.1266 27.937 25.996L43.6 10.343C43.7923 10.1511 43.9232 9.90634 43.9763 9.63988C44.0293 9.37342 44.0021 9.09721 43.898 8.84626C43.7939 8.59531 43.6176 8.38092 43.3915 8.23026C43.1654 8.0796 42.8997 7.99946 42.628 7.99999Z" fill="black"/>
<path d="M12 39C11.7348 39 11.4804 38.8946 11.2929 38.7071C11.1054 38.5196 11 38.2652 11 38V15C11 14.7348 11.1054 14.4804 11.2929 14.2929C11.4804 14.1054 11.7348 14 12 14C12.2652 14 12.5196 14.1054 12.7071 14.2929C12.8946 14.4804 13 14.7348 13 15V38C13 38.2652 12.8946 38.5196 12.7071 38.7071C12.5196 38.8946 12.2652 39 12 39Z" fill="black"/>
<path d="M7.5 29C7.00555 29 6.5222 28.8534 6.11108 28.5787C5.69995 28.304 5.37952 27.9135 5.1903 27.4567C5.00108 26.9999 4.95157 26.4972 5.04804 26.0123C5.1445 25.5273 5.3826 25.0819 5.73223 24.7322C6.08187 24.3826 6.52732 24.1445 7.01228 24.048C7.49723 23.9516 7.9999 24.0011 8.45671 24.1903C8.91353 24.3795 9.30397 24.7 9.57868 25.1111C9.85338 25.5222 10 26.0055 10 26.5C10 27.163 9.73661 27.7989 9.26777 28.2678C8.79893 28.7366 8.16304 29 7.5 29V29ZM7.5 26C7.40111 26 7.30444 26.0293 7.22222 26.0843C7.13999 26.1392 7.07591 26.2173 7.03806 26.3087C7.00022 26.4 6.99032 26.5006 7.00961 26.5975C7.0289 26.6945 7.07652 26.7836 7.14645 26.8536C7.21637 26.9235 7.30547 26.9711 7.40246 26.9904C7.49945 27.0097 7.59998 26.9998 7.69134 26.9619C7.78271 26.9241 7.8608 26.86 7.91574 26.7778C7.97068 26.6956 8 26.5989 8 26.5C8 26.3674 7.94732 26.2402 7.85355 26.1464C7.75979 26.0527 7.63261 26 7.5 26Z" fill="black"/>
<path d="M43 42H5C4.20435 42 3.44129 41.6839 2.87868 41.1213C2.31607 40.5587 2 39.7956 2 39V14C2 13.2044 2.31607 12.4413 2.87868 11.8787C3.44129 11.3161 4.20435 11 5 11H31C31.2652 11 31.5196 11.1054 31.7071 11.2929C31.8946 11.4804 32 11.7348 32 12C32 12.2652 31.8946 12.5196 31.7071 12.7071C31.5196 12.8946 31.2652 13 31 13H5C4.73478 13 4.48043 13.1054 4.29289 13.2929C4.10536 13.4804 4 13.7348 4 14V39C4 39.2652 4.10536 39.5196 4.29289 39.7071C4.48043 39.8946 4.73478 40 5 40H43C43.2652 40 43.5196 39.8946 43.7071 39.7071C43.8946 39.5196 44 39.2652 44 39V16C44 15.7348 44.1054 15.4804 44.2929 15.2929C44.4804 15.1054 44.7348 15 45 15C45.2652 15 45.5196 15.1054 45.7071 15.2929C45.8946 15.4804 46 15.7348 46 16V39C46 39.7956 45.6839 40.5587 45.1213 41.1213C44.5587 41.6839 43.7956 42 43 42Z" fill="black"/>
</svg>
